<svg width="730" height="771" viewBox="0 0 730 771" fill="none" xmlns="http://www.w3.org/2000/svg">
<path d="M400 0C360.486 58.0894 301.574 146.436 250.237 227.144C224.05 268.313 199.848 307.473 181.2 339.607C162.482 371.861 149.543 396.734 145.658 409.483C135.774 441.923 123.035 523.292 150.969 600.999C164.914 639.789 188.985 677.652 228.619 708.127C268.201 738.563 323.462 761.748 400 771C476.538 761.748 531.799 738.563 571.381 708.127C611.015 677.652 635.086 639.789 649.031 600.999C676.965 523.292 664.226 441.923 654.342 409.483C650.457 396.734 637.518 371.861 618.8 339.607C600.152 307.473 575.95 268.313 549.763 227.144C498.426 146.436 439.514 58.0894 400 0Z" fill="url(#paint0_linear_303_149)"/>
<path d="M0 304.534C13.6403 252.019 51.7028 226.036 69.0291 219.609L127.878 220.135L160.274 261.056C93.4362 246.051 25.5756 283.79 0 304.534Z" fill="#67965B"/>
<path d="M281.282 552.635C390.659 810.226 497.805 674.92 537.706 575.068C514.29 514.557 442.307 368.835 341.703 270.037C241.098 171.239 118.002 195.252 69.0291 219.609C94.2059 223.288 171.904 295.043 281.282 552.635Z" fill="#7AB26C"/>
<path d="M397.275 382.114C158.569 580.58 297.814 723.974 397.275 770.863C453.541 727.669 587.728 600.188 674.344 435.823C760.96 271.457 727.484 89.415 699.919 18.94C698.499 57.3034 635.98 183.647 397.275 382.114Z" fill="#4CA54F"/>
<defs>
<linearGradient id="paint0_linear_303_149" x1="365" y1="0" x2="365" y2="771" gradientUnits="userSpaceOnUse">
<stop stop-color="#3380B9"/>
<stop offset="1" stop-color="#B3BFFF"/>
</linearGradient>
</defs>
</svg>
